<?xml version="1.0" standalone="no"?><svg xmlns="http://www.w3.org/2000/svg" viewBox="0 0 1440 320"><path fill="#003b3b" fill-opacity="1" d="M0,192L24,165.3C48,139,96,85,144,80C192,75,240,117,288,138.7C336,160,384,160,432,138.7C480,117,528,75,576,85.3C624,96,672,160,720,192C768,224,816,224,864,192C912,160,960,96,1008,90.7C1056,85,1104,139,1152,170.7C1200,203,1248,213,1296,229.3C1344,245,1392,267,1416,277.3L1440,288L1440,320L1416,320C1392,320,1344,320,1296,320C1248,320,1200,320,1152,320C1104,320,1056,320,1008,320C960,320,912,320,864,320C816,320,768,320,720,320C672,320,624,320,576,320C528,320,480,320,432,320C384,320,336,320,288,320C240,320,192,320,144,320C96,320,48,320,24,320L0,320Z"></path></svg>