<svg width="16" height="16" viewBox="0 0 16 16" fill="none" xmlns="http://www.w3.org/2000/svg">
<path d="M7.84272 2C4.61587 2 2 4.63738 2 7.89076C2 11.1441 4.61587 13.7815 7.84272 13.7815C8.29727 13.7815 8.7397 13.7292 9.1644 13.6302C9.2142 13.6233 9.26462 13.611 9.31518 13.5929C9.71132 13.4892 10.0911 13.3446 10.4499 13.164L10.4991 13.1453C10.6696 13.0809 10.8578 13.083 11.0268 13.1511L12.9972 13.9457C13.5671 14.1756 14.147 13.637 13.9664 13.0455L13.1477 10.3627C13.4928 9.61098 13.6854 8.77355 13.6854 7.89076C13.6854 4.63738 11.0696 2 7.84272 2Z" stroke="#212121" stroke-linecap="round" stroke-linejoin="round"/>
<path d="M4.9209 7.89075H4.9282M7.84226 7.89075H7.84956M10.7563 7.89075H10.7636" stroke="#39D8B0" stroke-width="2" stroke-linecap="round" stroke-linejoin="round"/>
</svg>
