<?xml version="1.0" encoding="utf-8"?><!-- Uploaded to: SVG Repo, www.svgrepo.com, Generator: SVG Repo Mixer Tools -->
<svg width="800px" height="800px" viewBox="0 0 24 24" fill="none" xmlns="http://www.w3.org/2000/svg">
<path fill-rule="evenodd" clip-rule="evenodd" d="M8.25 5.25H15.75V11.25V20.25H14.25V13.5H9.75V20.25H8.25V14.25V5.25ZM11.25 20.25H12.75V15H11.25V20.25ZM15.75 21.75H8.25H6.75H2.25V14.25H6.75V3.75H17.25V11.25H21.75V21.75H17.25H15.75ZM6.75 15.75V20.25H3.75V15.75H6.75ZM17.25 20.25H20.25V12.75H17.25V20.25ZM11.25 7.5V8.25H10.5V9.75H11.25V10.5H12.75V9.75H13.5V8.25H12.75V7.5H11.25Z" fill="#080341"/>
</svg>