<svg width="189" height="61" viewBox="0 0 189 61" fill="none" xmlns="http://www.w3.org/2000/svg">
<g filter="url(#filter0_d_1161_3097)">
<path d="M13.0504 32.8727C19.351 23.0946 33.649 23.0947 39.9496 32.8727L64.7324 71.3336C71.5932 81.9809 63.9491 96 51.2828 96H1.71723C-10.9491 96 -18.5932 81.9809 -11.7324 71.3335L13.0504 32.8727Z" fill="#00A700"/>
<path d="M60.0504 32.8727C66.351 23.0946 80.649 23.0947 86.9496 32.8727L111.732 71.3336C118.593 81.9809 110.949 96 98.2828 96H48.7172C36.0509 96 28.4068 81.9809 35.2676 71.3335L60.0504 32.8727Z" fill="#00A700"/>
<path d="M107.05 32.8727C113.351 23.0946 127.649 23.0947 133.95 32.8727L158.732 71.3336C165.593 81.9809 157.949 96 145.283 96H95.7172C83.0509 96 75.4068 81.9809 82.2676 71.3335L107.05 32.8727Z" fill="#00A700"/>
</g>
<defs>
<filter id="filter0_d_1161_3097" x="-41.309" y="0.539185" width="229.618" height="124.461" filterUnits="userSpaceOnUse" color-interpolation-filters="sRGB">
<feFlood flood-opacity="0" result="BackgroundImageFix"/>
<feColorMatrix in="SourceAlpha" type="matrix" values="0 0 0 0 0 0 0 0 0 0 0 0 0 0 0 0 0 0 127 0" result="hardAlpha"/>
<feOffset dy="2"/>
<feGaussianBlur stdDeviation="13.5"/>
<feComposite in2="hardAlpha" operator="out"/>
<feColorMatrix type="matrix" values="0 0 0 0 0.506688 0 0 0 0 0.506688 0 0 0 0 0.506688 0 0 0 0.14 0"/>
<feBlend mode="normal" in2="BackgroundImageFix" result="effect1_dropShadow_1161_3097"/>
<feBlend mode="normal" in="SourceGraphic" in2="effect1_dropShadow_1161_3097" result="shape"/>
</filter>
</defs>
</svg>
