<svg width="10" height="11" viewBox="0 0 10 11" fill="none" xmlns="http://www.w3.org/2000/svg">
<g clip-path="url(#clip0_1496_1566)">
<path d="M7.38281 6.66536C7.22222 7.19054 6.92274 7.61372 6.48438 7.9349C6.04601 8.25608 5.55122 8.41667 5 8.41667C4.44878 8.41667 3.95399 8.25608 3.51562 7.9349C3.07726 7.61372 2.77778 7.19054 2.61719 6.66536C2.58247 6.55686 2.59115 6.45161 2.64323 6.34961C2.69531 6.24761 2.77778 6.17925 2.89062 6.14453C2.99913 6.10981 3.10438 6.11849 3.20638 6.17057C3.30838 6.22266 3.37674 6.30512 3.41146 6.41797C3.51997 6.76519 3.7207 7.04622 4.01367 7.26107C4.30664 7.47591 4.63542 7.58333 5 7.58333C5.36458 7.58333 5.69336 7.47591 5.98633 7.26107C6.2793 7.04622 6.48003 6.76519 6.58854 6.41797C6.62326 6.30512 6.69271 6.22266 6.79688 6.17057C6.90104 6.11849 7.00738 6.10981 7.11589 6.14453C7.22439 6.17925 7.30469 6.24761 7.35677 6.34961C7.40885 6.45161 7.41753 6.55686 7.38281 6.66536ZM4.16667 3.83333C4.16667 4.06337 4.08529 4.25977 3.92253 4.42253C3.75977 4.58529 3.56337 4.66667 3.33333 4.66667C3.1033 4.66667 2.9069 4.58529 2.74414 4.42253C2.58138 4.25977 2.5 4.06337 2.5 3.83333C2.5 3.6033 2.58138 3.4069 2.74414 3.24414C2.9069 3.08138 3.1033 3 3.33333 3C3.56337 3 3.75977 3.08138 3.92253 3.24414C4.08529 3.4069 4.16667 3.6033 4.16667 3.83333ZM7.5 3.83333C7.5 4.06337 7.41862 4.25977 7.25586 4.42253C7.0931 4.58529 6.8967 4.66667 6.66667 4.66667C6.43663 4.66667 6.24023 4.58529 6.07747 4.42253C5.91471 4.25977 5.83333 4.06337 5.83333 3.83333C5.83333 3.6033 5.91471 3.4069 6.07747 3.24414C6.24023 3.08138 6.43663 3 6.66667 3C6.8967 3 7.0931 3.08138 7.25586 3.24414C7.41862 3.4069 7.5 3.6033 7.5 3.83333ZM9.16667 5.5C9.16667 4.93576 9.05599 4.39648 8.83463 3.88216C8.61328 3.36784 8.31706 2.92513 7.94596 2.55404C7.57487 2.18294 7.13216 1.88672 6.61784 1.66536C6.10352 1.44401 5.56424 1.33333 5 1.33333C4.43576 1.33333 3.89648 1.44401 3.38216 1.66536C2.86784 1.88672 2.42513 2.18294 2.05404 2.55404C1.68294 2.92513 1.38672 3.36784 1.16536 3.88216C0.94401 4.39648 0.833333 4.93576 0.833333 5.5C0.833333 6.06424 0.94401 6.60352 1.16536 7.11784C1.38672 7.63216 1.68294 8.07487 2.05404 8.44596C2.42513 8.81706 2.86784 9.11328 3.38216 9.33463C3.89648 9.55599 4.43576 9.66667 5 9.66667C5.56424 9.66667 6.10352 9.55599 6.61784 9.33463C7.13216 9.11328 7.57487 8.81706 7.94596 8.44596C8.31706 8.07487 8.61328 7.63216 8.83463 7.11784C9.05599 6.60352 9.16667 6.06424 9.16667 5.5ZM10 5.5C10 6.40712 9.77648 7.24371 9.32943 8.00977C8.88238 8.77582 8.27582 9.38238 7.50977 9.82943C6.74371 10.2765 5.90712 10.5 5 10.5C4.09288 10.5 3.25629 10.2765 2.49023 9.82943C1.72418 9.38238 1.11762 8.77582 0.670573 8.00977C0.223524 7.24371 0 6.40712 0 5.5C0 4.59288 0.223524 3.75629 0.670573 2.99023C1.11762 2.22418 1.72418 1.61762 2.49023 1.17057C3.25629 0.723524 4.09288 0.5 5 0.5C5.90712 0.5 6.74371 0.723524 7.50977 1.17057C8.27582 1.61762 8.88238 2.22418 9.32943 2.99023C9.77648 3.75629 10 4.59288 10 5.5Z" fill="#003B3B"/>
</g>
<defs>
<clipPath id="clip0_1496_1566">
<rect width="10" height="10" fill="#E7FFE7" transform="translate(0 0.5)"/>
</clipPath>
</defs>
</svg>
