<svg width="12" height="12" viewBox="0 0 12 12" fill="none" xmlns="http://www.w3.org/2000/svg">
<path d="M4.23009 3.97438L3.96688 4.01447L0.689881 4.51363L0.689502 4.51369C0.610784 4.52562 0.543781 4.5804 0.513396 4.67822C0.482824 4.77665 0.50402 4.87701 0.574153 4.94835L0.574291 4.94849L2.94513 7.36226L3.12298 7.54332L3.08179 7.79376L2.5211 11.2032C2.52109 11.2032 2.52109 11.2032 2.52109 11.2032C2.50227 11.3183 2.54861 11.4064 2.6158 11.457C2.68225 11.507 2.75581 11.5137 2.82614 11.4747L2.82773 11.4738L5.75932 9.86389L6 9.73171L6.24068 9.86389L9.17227 11.4738L9.17235 11.4739C9.24333 11.5129 9.31788 11.506 9.38456 11.4559C9.45158 11.4055 9.49769 11.3181 9.47892 11.2032C9.47891 11.2032 9.47891 11.2032 9.4789 11.2032L8.91821 7.79376L8.87703 7.54332L9.05487 7.36226L11.4257 4.94849L11.4258 4.94835C11.496 4.87701 11.5172 4.77665 11.4866 4.67822C11.4562 4.5804 11.3892 4.52562 11.3105 4.51369L11.3101 4.51363L8.03312 4.01447L7.76991 3.97438L7.65625 3.73362L6.19201 0.63178C6.19196 0.631676 6.19191 0.631573 6.19187 0.631469C6.14661 0.536369 6.07076 0.500247 5.99913 0.500001C5.92905 0.499761 5.85444 0.533633 5.80842 0.630875L4.23009 3.97438ZM4.23009 3.97438L4.34375 3.73362L5.80833 0.631059L4.23009 3.97438Z" stroke="#FF981F"/>
</svg>
