<svg width="65" height="91" viewBox="0 0 65 91" fill="none" xmlns="http://www.w3.org/2000/svg">
<path opacity="0.5" d="M40.509 19.6713C43.339 10.9616 55.661 10.9616 58.491 19.6713C59.7566 23.5665 63.3864 26.2037 67.4819 26.2037C76.6399 26.2037 80.4476 37.9226 73.0387 43.3055C69.7253 45.7128 68.3388 49.9799 69.6044 53.875C72.4344 62.5848 62.4657 69.8274 55.0567 64.4445C51.7433 62.0372 47.2567 62.0372 43.9433 64.4445C36.5343 69.8274 26.5656 62.5848 29.3956 53.875C30.6612 49.9799 29.2747 45.7128 25.9614 43.3055C18.5524 37.9226 22.3601 26.2037 31.5181 26.2037C35.6137 26.2037 39.2434 23.5665 40.509 19.6713Z" fill="#FF0F00"/>
<circle cx="49" cy="42" r="11" fill="white"/>
<path d="M45 46C48.1928 49.1772 49.9487 49.0901 53 46" stroke="black"/>
<path d="M44 39C44.3991 37.6482 44.6186 37.6852 45 39" stroke="black"/>
<path d="M53 39C53.3991 37.6482 53.6186 37.6852 54 39" stroke="black"/>
</svg>
