<?xml version="1.0" standalone="no"?>
<!DOCTYPE svg PUBLIC "-//W3C//DTD SVG 20010904//EN"
 "http://www.w3.org/TR/2001/REC-SVG-20010904/DTD/svg10.dtd">
<svg version="1.0" xmlns="http://www.w3.org/2000/svg"
 width="140.000000pt" height="140.000000pt" viewBox="0 0 300.000000 300.000000"
 preserveAspectRatio="xMidYMid meet">
<metadata>
Created by potrace 1.10, written by Peter Selinger 2001-2011
</metadata>
<g transform="translate(0.000000,300.000000) scale(0.100000,-0.100000)"
fill="#7faaaa" stroke="none">
<path d="M1506 2020 c-34 -11 -82 -54 -102 -92 -21 -40 -18 -101 7 -132 11
-14 17 -31 13 -37 -4 -8 -3 -9 4 -5 13 8 15 -9 4 -36 -6 -16 -11 -14 -35 12
-25 26 -36 30 -80 30 -76 0 -136 -45 -137 -101 0 -15 -7 -43 -16 -64 -18 -45
-12 -77 22 -118 13 -16 24 -35 24 -42 0 -8 5 -17 10 -20 18 -11 0 47 -26 86
-24 35 -30 72 -18 104 9 24 47 -40 39 -66 -4 -11 -2 -19 4 -19 10 0 17 61 11
85 -14 50 -11 73 15 93 34 27 89 38 121 24 17 -8 25 -22 30 -52 4 -22 11 -43
15 -46 14 -8 10 -60 -5 -73 -10 -9 -20 -9 -39 0 -18 8 -30 8 -43 0 -16 -9 -15
-10 14 -11 31 0 43 -14 67 -77 1 -1 23 6 50 15 32 11 54 27 62 42 11 21 26 27
60 21 3 0 -4 -12 -17 -26 -19 -20 -20 -25 -7 -25 20 0 39 33 31 54 -5 13 -21
15 -66 7 -4 0 -9 -9 -13 -19 -4 -15 -61 -42 -88 -42 -16 0 -14 33 3 50 24 24
26 67 5 97 -15 22 -11 53 7 53 5 0 12 -9 15 -20 3 -11 12 -20 19 -20 8 0 14
-4 14 -10 0 -5 6 -10 14 -10 8 0 16 -7 20 -15 7 -19 36 -19 64 1 22 15 22 14
24 -23 1 -21 1 -51 0 -68 l-1 -30 14 30 c8 17 14 55 15 85 l0 54 41 -39 c22
-22 54 -62 72 -90 28 -43 32 -58 31 -115 0 -40 -8 -87 -22 -124 -12 -33 -20
-61 -18 -63 9 -9 70 139 79 193 22 129 -25 200 -208 309 -65 39 -133 84 -151
101 -31 28 -33 34 -24 65 12 42 49 75 98 89 92 24 187 -46 212 -156 7 -32 6
-34 -19 -34 -14 0 -54 9 -89 19 -34 11 -60 15 -56 10 3 -5 9 -9 14 -9 6 0 50
-17 100 -39 l90 -39 0 38 c0 99 -53 188 -134 226 -53 25 -91 28 -140 14z m57
-310 l59 -42 -36 -24 c-19 -13 -40 -24 -45 -24 -16 0 -50 37 -43 46 4 4 -1 4
-10 1 -12 -4 -18 -1 -18 7 0 8 -7 16 -15 20 -12 4 -13 11 -5 32 9 23 6 33 -15
64 -39 56 -30 59 23 8 26 -25 73 -64 105 -88z"/>
<path d="M1537 1807 c-3 -8 23 -27 69 -51 165 -88 244 -183 231 -279 l-6 -42
14 35 c7 19 14 59 14 89 2 102 -49 155 -221 225 -99 41 -94 40 -101 23z"/>
<path d="M1251 1520 c1 -57 3 -62 15 -45 18 24 17 65 -1 89 -13 17 -14 13 -14
-44z"/>
<path d="M1609 1487 c-19 -12 -50 -44 -69 -70 -29 -40 -44 -50 -90 -63 -30 -9
-59 -21 -65 -26 -7 -7 -3 -8 10 -5 45 12 85 18 85 13 0 -8 -61 -106 -66 -106
-5 0 -119 153 -133 178 -5 9 -12 14 -15 11 -3 -3 30 -60 73 -127 l79 -122 61
105 c72 124 121 182 174 205 29 13 34 19 22 24 -25 9 -29 8 -66 -17z"/>
<path d="M1504 1459 c-23 -26 -67 -49 -92 -49 -10 0 -38 14 -60 30 -51 37 -55
24 -6 -19 28 -25 43 -31 74 -29 21 1 45 -4 54 -11 10 -8 16 -9 16 -3 0 6 -5
14 -11 18 -7 4 2 19 22 40 18 19 30 36 27 39 -2 3 -13 -4 -24 -16z"/>
<path d="M1716 1322 c-16 -51 -51 -120 -107 -209 -11 -18 -20 -50 -21 -72 0
-41 23 -91 42 -91 6 0 3 11 -6 25 -23 36 -12 78 51 202 47 91 77 185 63 198
-2 3 -12 -21 -22 -53z"/>
<path d="M1230 1363 c0 -7 11 -47 25 -90 27 -85 72 -166 103 -182 18 -9 20
-19 16 -73 -2 -35 -1 -54 2 -43 3 11 10 36 15 56 8 32 12 36 35 31 22 -4 36 6
93 65 36 39 79 94 94 124 l28 54 -33 -40 c-69 -84 -140 -154 -169 -166 -26
-10 -34 -9 -57 8 -48 36 -84 91 -118 180 -18 48 -33 83 -34 76z"/>
<path d="M1010 870 c0 -5 14 -10 30 -10 l30 0 0 -75 c0 -43 4 -75 10 -75 6 0
10 32 10 75 l0 75 30 0 c17 0 30 5 30 10 0 6 -30 10 -70 10 -40 0 -70 -4 -70
-10z"/>
<path d="M1150 774 c0 -50 3 -64 15 -64 11 0 15 12 15 51 0 42 3 52 20 56 32
8 23 21 -15 21 l-35 0 0 -64z"/>
<path d="M1253 832 c-20 -13 -33 -60 -24 -86 14 -36 67 -49 90 -23 15 19 3 28
-19 15 -21 -14 -50 -4 -50 17 0 11 11 15 40 15 33 0 40 3 40 19 0 38 -45 63
-77 43z m51 -27 c4 -11 -2 -15 -24 -15 -29 0 -38 9 -23 23 12 12 41 7 47 -8z"/>
<path d="M1360 825 c-16 -19 -5 -34 12 -17 17 17 45 15 52 -3 4 -10 -1 -15
-15 -15 -31 0 -59 -19 -59 -39 0 -27 20 -39 63 -38 37 1 37 1 37 45 0 24 -5
52 -10 63 -13 23 -62 26 -80 4z m68 -67 c-7 -21 -36 -34 -49 -21 -6 6 -8 16
-5 22 10 15 59 14 54 -1z"/>
<path d="M1493 833 c-7 -2 -13 -15 -13 -28 0 -18 8 -26 35 -35 19 -6 35 -16
35 -21 0 -16 -29 -22 -45 -9 -22 19 -41 7 -21 -13 34 -33 92 -12 84 30 -2 10
-17 21 -36 27 -17 5 -32 15 -32 22 0 17 32 18 48 2 17 -17 28 -2 12 17 -12 15
-42 18 -67 8z"/>
<path d="M1600 786 c0 -61 12 -76 58 -73 31 2 32 4 33 50 1 26 2 52 3 59 1 6
-4 13 -11 15 -8 3 -13 -13 -15 -49 -3 -45 -6 -53 -23 -53 -17 0 -20 8 -23 53
-4 68 -22 67 -22 -2z"/>
<path d="M1730 783 c0 -29 0 -56 -1 -60 0 -4 4 -9 10 -11 7 -2 11 16 11 48 0
43 3 53 20 57 30 8 24 22 -10 21 -29 -1 -30 -2 -30 -55z"/>
<path d="M1816 824 c-25 -25 -24 -82 2 -101 21 -17 57 -16 71 0 15 19 3 28
-19 15 -21 -14 -50 -4 -50 17 0 11 11 15 40 15 33 0 40 3 40 19 0 25 -26 51
-50 51 -10 0 -26 -7 -34 -16z m58 -19 c4 -11 -2 -15 -24 -15 -29 0 -38 9 -23
23 12 12 41 7 47 -8z"/>
<path d="M1930 825 c-17 -21 -5 -44 30 -56 16 -6 30 -17 30 -25 0 -17 -32 -18
-48 -2 -17 17 -28 2 -12 -17 16 -20 54 -19 75 1 22 22 15 36 -29 57 -20 10
-34 22 -31 27 9 14 43 12 47 -1 2 -7 10 -10 17 -8 11 4 10 9 -3 22 -21 21 -59
22 -76 2z"/>
</g>
</svg>
